<?xml version="1.0" encoding="UTF-8" standalone="no"?>
<!-- Created with Inkscape (http://www.inkscape.org/) -->

<svg
   width="950"
   height="500"
   viewBox="0 0 251.35416 132.29167"
   version="1.1"
   id="svg1"
   xml:space="preserve"
   inkscape:version="1.3.2 (091e20e, 2023-11-25, custom)"
   sodipodi:docname="noteleporting.svg"
   inkscape:export-filename="NoTeleporting\Properties\Thumbnail.png"
   inkscape:export-xdpi="96"
   inkscape:export-ydpi="96"
   xmlns:inkscape="http://www.inkscape.org/namespaces/inkscape"
   xmlns:sodipodi="http://sodipodi.sourceforge.net/DTD/sodipodi-0.dtd"
   xmlns="http://www.w3.org/2000/svg"
   xmlns:svg="http://www.w3.org/2000/svg"><sodipodi:namedview
     id="namedview1"
     pagecolor="#ffffff"
     bordercolor="#000000"
     borderopacity="0.25"
     inkscape:showpageshadow="2"
     inkscape:pageopacity="0.0"
     inkscape:pagecheckerboard="0"
     inkscape:deskcolor="#d1d1d1"
     inkscape:document-units="mm"
     showgrid="true"
     inkscape:zoom="0.73139029"
     inkscape:cx="396.50513"
     inkscape:cy="233.11767"
     inkscape:window-width="1920"
     inkscape:window-height="1017"
     inkscape:window-x="-8"
     inkscape:window-y="-8"
     inkscape:window-maximized="1"
     inkscape:current-layer="layer1"><inkscape:grid
       id="grid1"
       units="mm"
       originx="0"
       originy="0"
       spacingx="0.99999997"
       spacingy="1"
       empcolor="#0099e5"
       empopacity="0.30196078"
       color="#0099e5"
       opacity="0.14901961"
       empspacing="5"
       dotted="false"
       gridanglex="30"
       gridanglez="30"
       visible="true" /></sodipodi:namedview><defs
     id="defs1" /><g
     inkscape:label="Layer 1"
     inkscape:groupmode="layer"
     id="layer1"><rect
       style="fill:#4a90e2;fill-opacity:1;stroke-width:0.264583"
       id="rect3"
       width="338.60172"
       height="196.07063"
       x="-31.834352"
       y="-37.260662" /><g
       id="g1"
       transform="matrix(0.1790907,0,0,0.1790907,79.319651,17.459725)"><path
         d="M 0,0 H 512 V 512 H 0 Z"
         fill="#4a90e2"
         fill-opacity="1"
         id="path1" /><g
         class=""
         id="g2"><path
           d="m 249.334,22.717 c -18.64,2.424 -35.677,23.574 -37.043,51.49 v 0.02 c -0.057,1.186 -0.097,2.38 -0.097,3.59 0,16.362 5.658,30.827 13.942,40.818 l 10.127,12.213 -15.592,2.933 c -10.75,2.025 -18.622,7.702 -25.373,16.978 -2.285,3.14 -4.384,6.707 -6.31,10.62 -57.54,-6.44 -97.91,-21.06 -97.91,-37.952 0,-17.363 42.647,-31.983 102.75,-37.97 -0.213,-2.51 -0.323,-5.057 -0.323,-7.636 v -0.002 c 0,-0.84 0.024,-1.674 0.047,-2.51 -96.43,6.77 -167.298,29.15 -167.3,55.71 -0.002,25.33 64.462,46.86 154.074,54.67 -0.19,0.742 -0.394,1.465 -0.576,2.216 -2.36,9.72 -4.05,20.22 -5.268,31.03 -0.01,0 -0.02,0 -0.03,0.002 -0.418,3.653 -0.78,7.34 -1.095,11.046 l 0.05,-0.005 c -1.316,15.777 -1.772,31.88 -1.893,46.95 h 35.894 l 2.115,28.4 c -68.24,-4.994 -118.444,-21.004 -118.444,-39.843 0,-13.243 24.83,-24.89 63.27,-32.33 0.3,-4.056 0.66,-8.115 1.076,-12.162 -76.42,9.353 -129.17,29.168 -129.172,52.086 -0.002,28.17 79.71,51.643 185.098,56.768 l 5.94,79.77 c 10.5,2.648 24.84,4.162 39.017,4.068 13.79,-0.092 27.235,-1.71 36.45,-4 l 5.263,-79.846 c 105.308,-5.14 184.935,-28.605 184.935,-56.76 0,-23.013 -53.196,-42.895 -130.13,-52.2 0.304,4.02 0.557,8.047 0.755,12.07 38.883,7.43 63.965,19.17 63.965,32.536 0,18.84 -49.804,34.85 -117.908,39.844 l 1.87,-28.402 h 34.18 c -0.012,-15.113 -0.127,-31.27 -1.033,-47.094 0.01,0 0.02,0.002 0.032,0.004 -0.214,-3.687 -0.472,-7.352 -0.782,-10.986 l -0.02,-0.002 c -0.94,-11.157 -2.367,-21.984 -4.546,-31.967 -0.09,-0.405 -0.184,-0.803 -0.275,-1.206 89.518,-7.826 153.893,-29.344 153.893,-54.656 0,-26.787 -72.076,-49.332 -169.77,-55.887 0.025,0.895 0.053,1.788 0.053,2.688 0,2.5 -0.104,4.97 -0.304,7.407 61.19,5.836 104.61,20.61 104.61,38.2 0,16.805 -39.633,31.355 -96.524,37.848 -2.01,-4.283 -4.26,-8.15 -6.762,-11.505 -6.83,-9.167 -15.063,-14.81 -27.14,-16.682 l -15.913,-2.47 10.037,-12.59 c 6.928,-8.69 11.912,-20.715 13.057,-34.268 h 0.002 c 0.163,-1.95 0.25,-3.93 0.25,-5.938 0,-0.77 -0.022,-1.532 -0.048,-2.29 -0.015,-0.48 -0.033,-0.958 -0.057,-1.434 h -0.002 c -1.48,-29.745 -20.507,-51.3 -41.076,-51.3 -2.528,0 -3.966,-0.087 -4.03,-0.08 h -0.003 z M 194.54,355.822 c -97.11,6.655 -168.573,29.11 -168.573,55.8 0,31.932 102.243,57.815 228.367,57.815 126.124,0 228.366,-25.882 228.366,-57.814 0,-26.608 -71.02,-49.004 -167.67,-55.736 l -0.655,9.93 c 60.363,6.055 103.074,20.956 103.074,38.394 0,22.81 -73.032,41.298 -163.12,41.298 -90.088,0 -163.12,-18.49 -163.12,-41.297 0,-17.533 43.18,-32.502 104.07,-38.493 l -0.74,-9.895 z"
           fill="#ffffff"
           fill-opacity="1"
           id="path2" /></g></g><g
       id="g4155"
       transform="matrix(0.22389816,0,0,0.22389816,121.32509,60.336063)"
       style="stroke:#d40000;stroke-width:2.23"><path
         sodipodi:nodetypes="ccccc"
         style="color:#000000;font-style:normal;font-variant:normal;font-weight:normal;font-stretch:normal;font-size:medium;line-height:normal;font-family:Sans;-inkscape-font-specification:Sans;text-indent:0;text-align:start;text-decoration:none;text-decoration-line:none;letter-spacing:normal;word-spacing:normal;text-transform:none;writing-mode:lr-tb;direction:ltr;baseline-shift:baseline;text-anchor:start;display:inline;overflow:visible;visibility:visible;fill:#d40000;fill-opacity:1;stroke:none;stroke-width:2.23;marker:none;enable-background:accumulate"
         d="m -116.9899,106.24536 31.819808,31.8198 236.310532,-236.310518 -31.81982,-31.819802 z"
         id="path3818"
         inkscape:connector-curvature="0" /><circle
         style="fill:none;stroke-width:44.6"
         id="circle3030"
         r="171.304"
         cy="4"
         cx="16" /></g><text
       xml:space="preserve"
       style="font-size:3.175px;fill:#4a90e2;fill-opacity:1;stroke-width:0.264583"
       x="87.906204"
       y="121.54932"
       id="text3"><tspan
         sodipodi:role="line"
         id="tspan3"
         style="font-style:normal;font-variant:normal;font-weight:normal;font-stretch:normal;font-size:16.9333px;font-family:Gabriola;-inkscape-font-specification:'Gabriola, Normal';font-variant-ligatures:normal;font-variant-caps:normal;font-variant-numeric:normal;font-variant-east-asian:normal;fill:#000000;fill-opacity:1;stroke-width:0.264583"
         x="87.906204"
         y="121.54932">No Teleporting</tspan></text></g></svg>
